<?xml version="1.0" encoding="utf-8"?>
<!-- Generator: Adobe Illustrator 22.0.0, SVG Export Plug-In . SVG Version: 6.00 Build 0)  -->
<svg version="1.1" id="Layer_1" xmlns="http://www.w3.org/2000/svg" xmlns:xlink="http://www.w3.org/1999/xlink" x="0px" y="0px"
	 viewBox="0 0 371.4 103.2" style="enable-background:new 0 0 371.4 103.2;" xml:space="preserve">
<style type="text/css">
	.st0{fill:#182A52;}
	.st1{fill:#BA4598;}
	.st2{fill:#6E4C9E;}
	.st3{fill:#E04693;}
	.st4{fill:#92489B;}
</style>
<title>logo-black</title>
<g>
	<g>
		<path class="st0" d="M138.6,43.8c0,12.6-9.5,20.5-24.6,20.5h-11.4V80H89.4V23.3H114C129.1,23.3,138.6,31.1,138.6,43.8z
			 M125.3,43.8c0-6.2-4-9.9-12.1-9.9h-10.7v19.7h10.7C121.2,53.6,125.3,50,125.3,43.8z"/>
		<path class="st0" d="M149.2,51.6c0-16.8,13.1-29.3,31-29.3c17.8,0,31,12.4,31,29.3c0,16.9-13.2,29.3-31,29.3
			C162.3,80.9,149.2,68.5,149.2,51.6z M197.9,51.6c0-10.8-7.6-18.1-17.7-18.1c-10.1,0-17.7,7.4-17.7,18.1c0,10.8,7.6,18.1,17.7,18.1
			C190.3,69.8,197.9,62.4,197.9,51.6z"/>
		<path class="st0" d="M225.2,23.3h13.1v46h28.4V80h-41.5V23.3z"/>
		<path class="st0" d="M299.5,59.9V80h-13.1V59.7l-21.9-36.4h13.9l15.1,25.2l15.1-25.2h12.9L299.5,59.9z"/>
		<path class="st0" d="M371.4,50.4c0,19.6-11.7,30.5-28.9,30.5c-6,0-11.7-1.4-15.7-3.9l4.9-9.6c3.1,2.1,6.7,2.8,10.6,2.8
			c9.4,0,15.6-5.6,16-16.5c-3.3,3.3-8.2,5.1-14.1,5.1c-10.9,0-19.5-7-19.5-17.7c0-11.6,9.5-18.9,21.5-18.9
			C361.7,22.3,371.4,32.1,371.4,50.4z M356.7,40.5c0-4.9-3.6-8.4-9.9-8.4c-5.6,0-9.5,3.2-9.5,8.4s3.8,8.5,9.6,8.5
			C352.7,49,356.7,45.5,356.7,40.5z"/>
	</g>
	<g>
		<polygon class="st1" points="63.9,22.2 63.9,51.6 25.5,29.4 50.9,14.7 		"/>
		<polygon class="st2" points="25.5,73.8 25.5,103.2 0,88.5 		"/>
		<polygon class="st3" points="50.9,14.7 0,44.1 0,14.7 0,14.7 25.5,0 		"/>
		<polygon class="st4" points="63.9,51.6 0,88.5 0,59.1 38.5,36.9 		"/>
	</g>
</g>
</svg>
